<svg width="24" height="24" viewBox="0 0 24 24" fill="none" xmlns="http://www.w3.org/2000/svg">
<g clip-path="url(#clip0_783_15969)">
<path d="M0 18.3491L5.65206 23.9999L7.43669 22.2153C8.32588 21.2455 9.39935 20.8494 10.9136 20.9323L10.9273 20.933C11.859 20.9856 12.772 20.6375 13.4321 19.978L15.0682 18.3435C14.8352 18.2387 14.6169 18.0911 14.4258 17.9C14.0248 17.499 13.8137 16.979 13.792 16.4526C13.2656 16.4309 12.7456 16.2198 12.3446 15.8188C11.679 15.1532 11.5361 14.1601 11.9154 13.3536C11.1243 13.3786 10.2049 13.1616 9.50614 12.7518C9.61897 14.3158 9.01018 16.0185 7.8507 17.1439L7.02582 17.9682L6.03176 16.9734L6.85763 16.1481C8.1575 14.8543 8.48029 12.9167 7.68087 11.2109L7.47152 10.7642L8.37515 9.86058L9.5224 11.0078C10.5151 12.0454 12.2959 12.2579 13.5292 11.4517L9.5697 7.49225C8.88765 6.8102 7.7779 6.8102 7.09585 7.49225L4.02278 10.5654C3.36211 11.226 3.01363 12.1399 3.06665 13.0727C3.1469 14.4838 2.59606 15.8392 1.55498 16.7941L0 18.3491Z" fill="#4E3CDB"/>
<path d="M4.54761 8.05189L6.10151 6.49799C7.28143 5.31807 9.1705 5.27044 10.4086 6.35361L11.4785 5.28371C12.3259 4.43632 13.7048 4.43632 14.5522 5.28371C14.7802 5.51171 14.9465 5.77806 15.0521 6.06185C15.8553 5.69167 16.8396 5.83699 17.5006 6.49799C18.1632 7.16054 18.3089 8.14504 17.9391 8.94831C18.2222 9.05368 18.4878 9.21939 18.7151 9.4466C19.3774 10.1089 19.5231 11.0933 19.1533 11.8966C19.4364 12.002 19.702 12.1676 19.9292 12.3949C20.7766 13.2423 20.7766 14.6212 19.9292 15.4686L17.4976 17.9002C17.4976 17.9003 17.4975 17.9004 17.4974 17.9005L17.4995 17.9026L15.9483 19.4523L21.005 19.3442L21.078 15.93L23.9998 14.1618L22.3515 11.1695L23.9998 8.17724L21.078 6.40907L21.005 2.99488L17.5908 2.92189L15.8227 0L12.8304 1.64831L9.83811 0L8.06989 2.92185L4.6557 2.99483L4.54761 8.05189Z" fill="#4E3CDB"/>
<path d="M16.5084 8.57949C16.8076 8.28037 16.8076 7.79365 16.5084 7.49454C16.2072 7.19326 15.7205 7.19326 15.4213 7.49238L13.49 9.42373L14.5771 10.5108L16.5084 8.57949Z" fill="#4E3CDB"/>
<path d="M13.339 13.7376C13.0393 14.0373 13.0393 14.5248 13.339 14.8244C13.6386 15.1241 14.1262 15.1241 14.4258 14.8244L17.7225 11.5278C18.0216 11.2287 18.0216 10.7419 17.7225 10.4428C17.4215 10.1418 16.9348 10.1418 16.6357 10.4409L13.339 13.7376Z" fill="#4E3CDB"/>
<path d="M13.56 6.28006C13.2589 5.97893 12.7721 5.97893 12.473 6.278L11.4087 7.34233L12.4957 8.42929L13.56 7.36497C13.8591 7.06585 13.8591 6.57913 13.56 6.28006Z" fill="#4E3CDB"/>
<path d="M15.4203 16.9058C15.7189 17.2044 16.2047 17.2044 16.5033 16.9058L18.9349 14.4743C19.234 14.1752 19.234 13.6885 18.9349 13.3894C18.6358 13.0903 18.1491 13.0903 17.85 13.3894L15.4204 15.819L15.4203 15.8191C15.1207 16.1187 15.1206 16.6062 15.4203 16.9058Z" fill="#4E3CDB"/>
</g>
<defs>
<clipPath id="clip0_783_15969">
<rect width="24" height="24" fill="white"/>
</clipPath>
</defs>
</svg>
