<svg width="24" height="24" viewBox="0 0 24 24" fill="none" xmlns="http://www.w3.org/2000/svg">
<path d="M18.2437 9.89625C18.2417 7.67004 17.3565 5.53558 15.7823 3.96141C14.2082 2.38724 12.0737 1.50199 9.84748 1.5C-1.29129 1.9619 -1.28804 17.8323 9.84754 18.2925C12.0737 18.2905 14.2082 17.4053 15.7823 15.8311C17.3565 14.2569 18.2417 12.1225 18.2437 9.89625ZM9.84748 5.145C11.1073 5.14595 12.3152 5.64683 13.2061 6.53766C14.0969 7.42849 14.5978 8.63643 14.5987 9.89625C14.3398 16.1998 5.35423 16.198 5.09623 9.89622C5.09719 8.6364 5.59808 7.42847 6.4889 6.53765C7.37973 5.64683 8.58767 5.14595 9.84748 5.145Z" fill="#4E3CDB"/>
<path d="M9.84744 13.8976C10.9085 13.8972 11.9261 13.4755 12.6764 12.7252C13.4267 11.9749 13.8483 10.9574 13.8487 9.89631C13.6294 4.58822 6.06699 4.58961 5.84619 9.89635C5.8472 10.9572 6.26908 11.9744 7.01925 12.7245C7.76941 13.4747 8.78656 13.8966 9.84744 13.8976ZM9.84744 8.00631C12.3453 8.08524 12.3447 11.7078 9.8474 11.7863C7.34957 11.7074 7.35018 8.08485 9.84744 8.00631Z" fill="#4E3CDB"/>
<path d="M9.84756 11.0363C10.1477 11.033 10.4344 10.9114 10.6455 10.698C10.8565 10.4845 10.9749 10.1965 10.9749 9.89633C10.9749 9.59617 10.8565 9.30813 10.6454 9.0947C10.4344 8.88128 10.1477 8.7597 9.84752 8.75635C9.54738 8.75971 9.26068 8.8813 9.04963 9.09473C8.83858 9.30816 8.72021 9.59621 8.72021 9.89636C8.72022 10.1965 8.8386 10.4846 9.04965 10.698C9.26071 10.9114 9.54742 11.033 9.84756 11.0363Z" fill="#4E3CDB"/>
<path d="M12.7237 18.5776C10.6462 19.2654 8.39103 19.1856 6.36743 18.3526V21.3751C6.36831 21.6732 6.48711 21.9588 6.6979 22.1696C6.90869 22.3804 7.19433 22.4992 7.49243 22.5001H12.3487C12.6468 22.4992 12.9324 22.3804 13.1432 22.1696C13.354 21.9588 13.4728 21.6732 13.4737 21.3751V18.2888C13.2281 18.3977 12.9789 18.4929 12.7237 18.5776Z" fill="#4E3CDB"/>
<path d="M20.4338 6.25488C19.8733 6.25612 19.336 6.47935 18.9396 6.87572C18.5433 7.27209 18.32 7.80933 18.3188 8.36988C18.2462 9.30712 19.1741 9.83233 19.1176 10.7661V14.2574C19.1182 14.6064 19.0209 14.9486 18.8366 15.2449C18.6522 15.5413 18.3884 15.7799 18.0751 15.9336C17.3967 16.2669 14.8298 17.5009 14.2238 17.9249C14.2179 18.3703 14.2238 20.6474 14.2238 20.6474L20.1451 17.6924C20.5898 17.4729 20.964 17.133 21.2252 16.7114C21.4864 16.2898 21.6241 15.8033 21.6226 15.3074V10.8224C21.6192 10.4393 21.7566 10.0683 22.0088 9.77988C22.2814 9.47583 22.4601 9.09931 22.5233 8.69585C22.5865 8.29239 22.5315 7.87927 22.3649 7.50641C22.1983 7.13356 21.9273 6.81695 21.5846 6.59484C21.2419 6.37274 20.8422 6.25466 20.4338 6.25488Z" fill="#4E3CDB"/>
</svg>
