<svg width="28" height="16" viewBox="0 0 28 16" fill="none" xmlns="http://www.w3.org/2000/svg">
<g id="logo">
<path id="Rectangle 5" d="M22.3922 0.778809H18.7268L21.5307 7.99997L24.3346 15.2211H27.9999L22.3922 0.778809Z" fill="#4E3CDB"/>
<path id="Rectangle 6" fill-rule="evenodd" clip-rule="evenodd" d="M21.5443 8.04402L20.1252 8.04434L18.8986 11.1508L22.7513 11.15L21.5443 8.04402Z" fill="#4E3CDB"/>
<g id="Vector">
<path d="M18.0738 0.778809H21.7198L16.1417 15.2211H12.4957L18.0738 0.778809Z" fill="#4E3CDB"/>
<path d="M9.8809 0.778809H6.21552L11.8232 15.2211H15.4886L9.8809 0.778809Z" fill="#4E3CDB"/>
</g>
<g id="Vector_2">
<path d="M18.0738 0.778809H21.7198L16.1417 15.2211H12.4957L18.0738 0.778809Z" fill="#4E3CDB"/>
<path d="M9.8809 0.778809H6.21552L11.8232 15.2211H15.4886L9.8809 0.778809Z" fill="#4E3CDB"/>
</g>
<path id="Subtract" fill-rule="evenodd" clip-rule="evenodd" d="M13.3036 6.47652L15.5043 0.778809H11.8583L11.4758 1.76906L13.3036 6.47652ZM8.44081 9.62706L7.77269 11.3569L3.66539 0.778809H0L5.60773 15.2211H6.28021H9.27312H9.9262L10.2686 14.3345L8.44081 9.62706Z" fill="#4E3CDB"/>
</g>
</svg>
